<svg width="16" height="16" viewBox="0 0 16 16" fill="none" xmlns="http://www.w3.org/2000/svg">
<path d="M8.01017 0C9.59155 0.00201066 11.1369 0.472655 12.4509 1.35248C13.7649 2.2323 14.7887 3.48183 15.393 4.94323C15.9972 6.40462 16.1548 8.01231 15.8458 9.56321C15.5368 11.1141 14.7751 12.5386 13.6568 13.6568C12.5386 14.7751 11.1141 15.5368 9.56321 15.8458C8.01231 16.1548 6.40462 15.9972 4.94323 15.393C3.48183 14.7887 2.2323 13.7649 1.35248 12.4509C0.472655 11.1369 0.00201066 9.59155 0 8.01017C0 5.88574 0.843926 3.84832 2.34612 2.34612C3.84832 0.843926 5.88574 0 8.01017 0Z" fill="#D22856"/>
</svg>
